<?xml version="1.0" encoding="UTF-8" standalone="no"?>
<svg
   xmlns:dc="http://purl.org/dc/elements/1.1/"
   xmlns:cc="http://creativecommons.org/ns#"
   xmlns:rdf="http://www.w3.org/1999/02/22-rdf-syntax-ns#"
   xmlns:svg="http://www.w3.org/2000/svg"
   xmlns="http://www.w3.org/2000/svg"
   viewBox="0 0 200 130"
   height="130"
   width="200"
   xml:space="preserve"
   version="1.1"
   id="svg2"><metadata
     id="metadata8"><rdf:RDF><cc:Work
         rdf:about=""><dc:format>image/svg+xml</dc:format><dc:type
           rdf:resource="http://purl.org/dc/dcmitype/StillImage" /><dc:title></dc:title></cc:Work></rdf:RDF></metadata><defs
     id="defs6"><clipPath
       id="clipPath16"
       clipPathUnits="userSpaceOnUse"><path
         id="path18"
         d="M 0,595.28 H 595.28 V 0 H 0 Z" /></clipPath></defs><g
     transform="matrix(1.25,0,0,-1.25,-94.044067,387.73498)"
     id="g10"><g
       transform="translate(-5.0447456,25.223728)"
       id="g12"><g
         transform="matrix(1.4757877,0,0,1.6621193,-101.51358,-258.65604)"
         clip-path="url(#clipPath16)"
         id="g14"><g
           transform="translate(504.9473,266.0645)"
           id="g24"><path
             id="path26"
             style="fill:#f35e19;fill-opacity:1;fill-rule:nonzero;stroke:none"
             d="m -283.34172,-0.43495163 c 6.266,8.05500003 10.053,18.17799963 10.053,29.12499963 0,11.431 -4.063,21.896 -10.81,30.158 -1.309,1.584 -3.72,1.791 -5.233,0.346 l -0.827,-0.758 c -1.377,-1.308 -1.514,-3.512 -0.344,-4.957 5.508,-6.748 8.813,-15.355 8.813,-24.719 0,-9.021 -3.098,-17.353 -8.193,-23.9629996 -1.171,-1.515 -0.964,-3.648 0.481,-4.88800003 l 0.827,-0.758 c 1.515,-1.44499997 3.924,-1.23999997 5.233,0.414" /></g><g
           transform="translate(495.8584,275.0156)"
           id="g28"><path
             id="path30"
             style="fill:#f35e19;fill-opacity:1;fill-rule:nonzero;stroke:none"
             d="m -283.34172,-0.43495163 c 4.062,5.71500003 6.472,12.66799963 6.472,20.17399963 0,7.849 -2.618,15.148 -7.023,21.002 -1.308,1.72 -3.787,1.996 -5.371,0.482 l -0.826,-0.759 c -1.377,-1.307 -1.516,-3.374 -0.413,-4.888 3.305,-4.407 5.302,-9.915 5.302,-15.837 0,-5.715 -1.79,-11.0159996 -4.889,-15.2849996 -1.033,-1.516 -0.757,-3.57999999 0.62,-4.75200003 l 0.826,-0.68799997 c 1.515,-1.515 3.993,-1.17 5.302,0.55099997" /></g><g
           transform="translate(485.8057,284.3105)"
           id="g32"><path
             id="path34"
             style="fill:#f35e19;fill-opacity:1;fill-rule:nonzero;stroke:none"
             d="m -283.34172,-0.43495163 c 1.928,3.16800003 3.029,6.88700003 3.029,10.87899963 0,4.201 -1.239,8.195 -3.374,11.5 -1.239,1.928 -3.855,2.271 -5.509,0.756 l -0.826,-0.756 c -1.238,-1.172 -1.584,-3.098 -0.62,-4.545 1.24,-1.996 1.997,-4.406 1.997,-6.955 0,-2.3399996 -0.62,-4.5429996 -1.72,-6.4729996 -0.895,-1.513 -0.621,-3.37299999 0.688,-4.54500003 l 0.826,-0.75599997 c 1.653,-1.445 4.338,-1.033 5.509,0.89499997" /></g><g
           transform="translate(183.9854,324.9766)"
           id="g60"><path
             id="path62"
             style="fill:#186dbf;fill-opacity:1;fill-rule:nonzero;stroke:none"
             d="M 0,0 C -1.16,1.159 -2.577,1.738 -4.25,1.738 -5.926,1.738 -7.326,1.159 -8.452,0 -9.58,-1.159 -10.143,-2.577 -10.143,-4.25 v -35.836 l -7.803,7.822 c -3.149,3.157 -6.969,4.735 -11.466,4.735 -2.185,0 -4.272,-0.403 -6.264,-1.207 -1.992,-0.807 -3.725,-1.981 -5.202,-3.528 l -7.708,-7.726 v 35.74 c 0,1.674 -0.586,3.091 -1.754,4.25 -1.168,1.158 -2.595,1.738 -4.283,1.738 -1.687,0 -3.117,-0.58 -4.285,-1.738 -1.169,-1.159 -1.752,-2.576 -1.752,-4.25 v -50.133 c 0,-1.676 0.58,-3.09 1.739,-4.25 1.158,-1.16 2.574,-1.738 4.25,-1.738 1.223,0 2.382,0.351 3.478,1.062 v -0.095 l 17.772,17.869 c 1.094,1.094 2.415,1.64 3.961,1.64 1.415,0 2.704,-0.515 3.862,-1.543 l 17.196,-17.291 0.771,-0.675 0.097,0.095 c 1.029,-0.711 2.125,-1.062 3.284,-1.062 1.673,0 3.09,0.578 4.25,1.738 1.159,1.16 1.738,2.574 1.738,4.25 V -4.25 C 1.738,-2.577 1.159,-1.159 0,0" /></g></g></g></g></svg>