<svg aria-hidden="true" version="1.1" xmlns="http://www.w3.org/2000/svg" xmlns:xlink="http://www.w3.org/1999/xlink">
  <!-- © 2019 WAZIUP -->
  <!-- AUTO GENERATED FILE - DO NOT MODIFY! -->
  <!-- use `node svg2map` -->
<defs>
<symbol id="buoy" viewBox="0 0 512.135 512.135">
<path d="m411.678 61.287-150-60c-1.824-.736-3.71-1.029-5.566-1.029v149.96c1.86 0 3.75-.337 5.566-1.069l150-60c5.698-2.285 9.434-7.793 9.434-13.931s-3.736-11.646-9.434-13.931z" fill="#4bb9ec"/><path d="m271.111 15.218v181c0 8.399-6.599 15-15 15s-15-6.601-15-15v-181c0-8.401 6.599-15 15-15 8.401 0 15 6.599 15 15z" fill="#725d57"/><path d="m271.111 15.218v181c0 8.399-6.599 15-15 15v-211c8.401 0 15 6.599 15 15z" fill="#53433f"/><path d="m301.111 226.218v32.399h-90v-32.399c0-24.901 20.099-45 45-45s45 20.099 45 45z" fill="#ff641a"/><path d="m301.111 258.616h-45v-77.399c24.901 0 45 20.099 45 45z" fill="#f03800"/><path d="m421.111 407.218c0 23.399-5.099 46.5-14.399 67.5-8.101 2.699-15.901 6.299-23.101 11.1-22.5 14.7-51.301 14.7-73.5 0-16.5-10.8-35.099-16.201-54-16.201-17.999 0-36.599 5.402-52.5 16.201-21.301 14.099-52.5 13.799-73.5 0-7.8-5.099-16.199-9-24.901-11.7-9.3-21-14.099-43.801-14.099-66.899 0-90.901 74.099-166 165-166s165 75.098 165 165.999z" fill="#ff9100"/><path d="m421.111 407.218c0 23.399-5.099 46.5-14.399 67.5-8.101 2.699-15.901 6.299-23.101 11.1-22.5 14.7-51.301 14.7-73.5 0-16.5-10.8-35.099-16.201-54-16.201v-228.399c90.901 0 165 75.099 165 166z" fill="#ff641a"/><path d="m510.912 496.617c-3.001 7.5-12.001 11.4-19.501 8.101-5.7-2.401-12.4-5.4-17.8-9-22.5-14.702-51-14.702-73.5 0-16.199 10.8-34.799 16.199-53.399 16.199-18.301 0-36.901-5.4-53.101-16.199-11.4-7.5-24.3-11.102-37.5-11.102-12.299 0-24.901 3.602-36 11.102-32.401 21.599-74.099 21.599-106.5 0-22.5-14.702-52-14.702-74.5 0-5.7 3.898-11.999 7.2-18.6 9.598-7.8 3.301-16.5-.599-19.499-8.399-3.001-7.8.899-16.5 8.699-19.501 4.499-1.8 8.699-3.9 12.9-6.599 32.401-21.601 75.099-21.601 107.5 0 22.5 14.7 51 14.7 73.5 0 15.901-10.8 34.501-16.201 52.5-16.201 18.9 0 37.5 5.402 54 16.201 22.5 14.7 51 14.7 73.5 0 32.401-21.601 75.099-21.601 107.5 0 3.9 2.401 7.8 4.499 11.7 6.299 7.801 3.001 11.4 11.701 8.101 19.501z" fill="#a8ebfa"/><path d="m510.912 496.617c-3.001 7.5-12.001 11.4-19.501 8.101-5.7-2.401-12.4-5.4-17.8-9-22.5-14.702-51-14.702-73.5 0-16.199 10.8-34.799 16.199-53.399 16.199-18.301 0-36.901-5.4-53.101-16.199-11.4-7.5-24.3-11.102-37.5-11.102v-30c18.9 0 37.5 5.402 54 16.201 22.5 14.7 51 14.7 73.5 0 32.401-21.601 75.099-21.601 107.5 0 3.9 2.401 7.8 4.499 11.7 6.299 7.801 3.001 11.4 11.701 8.101 19.501z" fill="#76e2f8"/></symbol>
<symbol id="camera" viewBox="0 0 512 512">
<path d="m151 96v30h-120v-30c0-3.98 1.58-7.79 4.39-10.61l20-20c2.82-2.81 6.63-4.39 10.61-4.39h50c3.98 0 7.79 1.58 10.61 4.39l20 20c2.81 2.82 4.39 6.63 4.39 10.61z" fill="#1c6c94"/><path d="m467 61h-270.409c-5.61 0-10.751 3.131-13.326 8.115l-26.807 51.885h-141.458c-8.284 0-15 6.716-15 15v280c0 19.299 15.701 35 35 35h432c24.813 0 45-20.187 45-45v-300c0-24.813-20.187-45-45-45z" fill="#fcbe29"/><path d="m512 106v300c0 24.81-20.19 45-45 45h-211v-390h211c24.81 0 45 20.19 45 45z" fill="#fe9022"/><path d="m0 226h512v150h-512z" fill="#1c6c94"/><path d="m256 226h256v150h-256z" fill="#165771"/><circle cx="256" cy="271" fill="#165771" r="120"/><path d="m376 271c0 45.13-25.04 84.52-61.97 105-17.21 9.56-37 15-58.03 15v-240c50.26 0 93.41 31.06 111.23 75 5.66 13.9 8.77 29.1 8.77 45z" fill="#0c3f60"/><circle cx="256" cy="271" fill="#30d9f6" r="90"/><path d="m346 271c0 49.63-40.37 90-90 90v-180c33.25 0 62.34 18.12 77.92 45 7.68 13.24 12.08 28.62 12.08 45z" fill="#19c0ef"/><path d="m436 121h-60c-8.284 0-15 6.716-15 15s6.716 15 15 15h60c8.284 0 15-6.716 15-15s-6.716-15-15-15z" fill="#e0f4fe"/></symbol>
<symbol id="car" viewBox="0 0 512 512">
<path d="m464.867 216.9h-68.622l-23.21-92.828c-5.253-21.022-24.055-35.705-45.722-35.705h-203.614c-23.723 0-43.829 17.751-46.769 41.287-3.387 27.084-8.356 66.844-10.906 87.246h-18.891c-25.989 0-47.133 21.144-47.133 47.133v96.4c0 8.284 6.716 15 15 15h482c8.284 0 15-6.716 15-15v-96.4c0-25.989-21.144-47.133-47.133-47.133z" fill="#ff5b5b"/><path d="m464.867 216.9h-68.622l-23.21-92.828c-5.253-21.022-24.055-35.705-45.722-35.705h-94.735v287.066h264.422c8.284 0 15-6.716 15-15v-96.4c0-25.989-21.144-47.133-47.133-47.133z" fill="#ff0059"/><path d="m343.93 131.347 16.731 66.915c2.367 9.467-4.793 18.638-14.552 18.638h-34.552c-6.883 0-12.883-4.684-14.552-11.362l-17.133-68.533c-2.367-9.467 4.794-18.638 14.552-18.638h32.889c7.874 0 14.707 5.336 16.617 12.98z" fill="#a8ebfa"/><ellipse cx="111.4" cy="360.433" fill="#003250" rx="63.2" ry="63.2" transform="matrix(.707 -.707 .707 .707 -222.237 184.34)"/><path d="m111.4 327.233c-18.306 0-33.2 14.894-33.2 33.2 0 18.307 14.894 33.2 33.2 33.2 18.307 0 33.2-14.894 33.2-33.2s-14.893-33.2-33.2-33.2z" fill="#f6efea"/><ellipse cx="400.6" cy="360.433" fill="#000a1e" rx="63.2" ry="63.2" transform="matrix(.23 -.973 .973 .23 -42.23 667.507)"/><path d="m400.6 327.233c-18.307 0-33.2 14.894-33.2 33.2 0 18.307 14.894 33.2 33.2 33.2s33.2-14.894 33.2-33.2-14.894-33.2-33.2-33.2z" fill="#eee1dc"/><path d="m106.699 133.375c1.068-8.556 8.377-15.008 17-15.008h108.877c6.883 0 12.883 4.684 14.552 11.362l17.133 68.533c2.367 9.467-4.794 18.638-14.552 18.638h-136.46c-9.022 0-16.004-7.903-14.885-16.856 2.594-20.75 5.88-47.037 8.335-66.669z" fill="#dcf7fd"/><path d="m249.71 216.9c9.759 0 16.919-9.171 14.552-18.638l-17.133-68.533c-1.669-6.677-7.669-11.362-14.552-11.362v98.533z" fill="#a8ebfa"/></symbol>
<symbol id="clock" viewBox="0 0 512 512">

<circle style="fill:#FF9E24;" cx="256" cy="256" r="256"/>
<circle style="fill:#FFFFFF;" cx="256" cy="256" r="207.469"/>
<path style="fill:#181818;" d="M342.649,196.805c7.582-7.582,7.582-19.872,0-27.453c-7.582-7.582-19.872-7.582-27.453,0
	l-73.605,73.605l27.453,27.453L342.649,196.805z"/>
<path style="fill:#EE3840;" d="M244.229,250.613L135.035,359.807c-4.738,4.738-4.738,12.42,0,17.159
	c2.37,2.368,5.474,3.554,8.579,3.554c3.105,0,6.211-1.185,8.579-3.554l109.194-109.194L244.229,250.613z"/>
<path style="fill:#181818;" d="M171.066,143.614c-7.582-7.582-19.872-7.582-27.453,0c-7.582,7.582-7.582,19.872,0,27.453
	l99.343,99.343l27.453-27.453L171.066,143.614z"/>
<path style="fill:#524E4D;" d="M256,286.332c-16.725,0-30.332-13.607-30.332-30.332s13.607-30.332,30.332-30.332
	s30.332,13.607,30.332,30.332S272.725,286.332,256,286.332z"/>
<g>
	<path style="fill:#7A7674;" d="M115.261,268.133H97.062c-6.701,0-12.133-5.433-12.133-12.133s5.432-12.133,12.133-12.133h18.199
		c6.701,0,12.133,5.433,12.133,12.133S121.962,268.133,115.261,268.133z"/>
	<path style="fill:#7A7674;" d="M256,127.393c-6.701,0-12.133-5.433-12.133-12.133V97.062c0-6.7,5.432-12.133,12.133-12.133
		c6.701,0,12.133,5.433,12.133,12.133v18.199C268.133,121.96,262.701,127.393,256,127.393z"/>
	<path style="fill:#7A7674;" d="M414.938,268.133h-18.199c-6.701,0-12.133-5.433-12.133-12.133s5.432-12.133,12.133-12.133h18.199
		c6.701,0,12.133,5.433,12.133,12.133S421.639,268.133,414.938,268.133z"/>
	<path style="fill:#7A7674;" d="M256,427.071c-6.701,0-12.133-5.433-12.133-12.133v-18.199c0-6.7,5.432-12.133,12.133-12.133
		c6.701,0,12.133,5.433,12.133,12.133v18.199C268.133,421.638,262.701,427.071,256,427.071z"/>
</g>
<g>
</g>
<g>
</g>
<g>
</g>
<g>
</g>
<g>
</g>
<g>
</g>
<g>
</g>
<g>
</g>
<g>
</g>
<g>
</g>
<g>
</g>
<g>
</g>
<g>
</g>
<g>
</g>
<g>
</g>
</symbol>
<symbol id="electrical" viewBox="0 0 512.001 512.001">

<g>
	<path style="fill:#CCCCCC;" d="M407.087,202.379c-4.43,0-8.02-3.591-8.02-8.02v-91.955c0-4.429,3.59-8.02,8.02-8.02
		c4.43,0,8.02,3.591,8.02,8.02v91.954C415.106,198.789,411.517,202.379,407.087,202.379z"/>
	<path style="fill:#CCCCCC;" d="M485.674,127.8c-4.43,0-8.02-3.591-8.02-8.02V27.827c0-4.429,3.59-8.02,8.02-8.02
		c4.43,0,8.02,3.591,8.02,8.02v91.954C493.694,124.21,490.104,127.8,485.674,127.8z"/>
</g>
<g>
	<path style="fill:#756E75;" d="M371.551,398.668h-161.19c-4.43,0-8.02-3.591-8.02-8.02s3.59-8.02,8.02-8.02h161.19
		c15.172,0,27.516-12.343,27.516-27.515v-83.766c0-4.429,3.59-8.02,8.02-8.02c4.43,0,8.02,3.591,8.02,8.02v83.766
		C415.106,379.13,395.568,398.668,371.551,398.668z"/>
	<path style="fill:#756E75;" d="M418.432,453.199h-240.15c-4.43,0-8.02-3.591-8.02-8.02s3.59-8.02,8.02-8.02h240.15
		c32.656,0,59.223-26.567,59.223-59.223V215.831c0-4.429,3.59-8.02,8.02-8.02c4.43,0,8.02,3.591,8.02,8.02v162.107
		C493.694,419.437,459.931,453.199,418.432,453.199z"/>
</g>
<path style="fill:#F9C55F;" d="M318.551,485.842c-96.762,14.292-193.524,14.292-290.286,0c-10.81-1.596-19.109-10.399-19.975-21.293
	C-2.762,325.517-2.762,186.483,8.29,47.45c0.866-10.894,9.164-19.695,19.975-21.291c96.762-14.292,193.525-14.292,290.287,0
	c10.81,1.596,19.109,10.399,19.975,21.291c11.052,139.033,11.052,278.066,0,417.099C337.66,475.445,329.362,484.246,318.551,485.842
	z"/>
<path style="fill:#DDA645;" d="M33.25,482.788c-11.052-151.192-11.052-302.383,0-453.573c0.096-1.315,0.298-2.598,0.571-3.85
	c-1.852,0.263-3.705,0.522-5.557,0.796C17.454,27.756,9.155,36.559,8.289,47.452c-11.052,139.033-11.052,278.066,0,417.099
	c0.866,10.894,9.165,19.695,19.975,21.291c1.852,0.274,3.705,0.533,5.557,0.796C33.549,485.386,33.348,484.104,33.25,482.788z"/>
<path style="fill:#BFE8F7;" d="M282.052,211.459H64.763c-11.745,0-21.266-9.521-21.266-21.266V89.983
	c0-11.745,9.521-21.266,21.266-21.266h217.289c11.745,0,21.266,9.521,21.266,21.266v100.21
	C303.319,201.938,293.797,211.459,282.052,211.459z"/>
<path style="fill:#DDA645;" d="M282.052,219.478H64.763c-16.149,0-29.286-13.137-29.286-29.285V89.983
	c0-16.148,13.137-29.285,29.286-29.285h217.289c16.149,0,29.286,13.137,29.286,29.285v100.21
	C311.339,206.341,298.202,219.478,282.052,219.478z M64.763,76.737c-7.304,0-13.247,5.942-13.247,13.246v100.21
	c0,7.304,5.943,13.246,13.247,13.246h217.289c7.304,0,13.247-5.942,13.247-13.246V89.983c0-7.304-5.943-13.246-13.247-13.246H64.763
	z"/>
<g>
	<path style="fill:#61B4D1;" d="M202.217,180.84h-27.894c-4.43,0-8.02-3.591-8.02-8.02v-65.466c0-4.429,3.59-8.02,8.02-8.02h27.894
		c4.43,0,8.02,3.591,8.02,8.02v65.466C210.236,177.25,206.647,180.84,202.217,180.84z M182.342,164.801h11.855v-49.426h-11.855
		V164.801z"/>
	<path style="fill:#61B4D1;" d="M123.677,180.84c-4.43,0-8.02-3.591-8.02-8.02v-57.446H95.783c-4.43,0-8.02-3.591-8.02-8.02
		s3.59-8.02,8.02-8.02h27.894c4.43,0,8.02,3.591,8.02,8.02v65.466C131.697,177.25,128.107,180.84,123.677,180.84z"/>
	<path style="fill:#61B4D1;" d="M251.034,180.84c-4.43,0-8.02-3.591-8.02-8.02v-57.446h-19.875c-4.43,0-8.02-3.591-8.02-8.02
		s3.59-8.02,8.02-8.02h27.894c4.43,0,8.02,3.591,8.02,8.02v65.466C259.053,177.25,255.463,180.84,251.034,180.84z"/>
	<path style="fill:#61B4D1;" d="M150,132.566c-6.978,0-10.649-8.761-5.667-13.697c2.528-2.505,6.516-3.054,9.616-1.299
		c2.976,1.684,4.583,5.183,3.909,8.538C157.117,129.807,153.789,132.566,150,132.566z"/>
	<path style="fill:#61B4D1;" d="M150,163.649c-7.146,0-10.672-9.071-5.443-13.906c2.53-2.34,6.399-2.789,9.393-1.082
		c2.914,1.661,4.525,5.03,3.945,8.345C157.23,160.797,153.861,163.649,150,163.649z"/>
</g>
<g>
	<path style="fill:#F44A82;" d="M97.499,291.218H55.83c-6.811,0-12.333-5.522-12.333-12.333v-21.412
		c0-6.811,5.522-12.333,12.333-12.333h41.669c6.811,0,12.333,5.522,12.333,12.333v21.413
		C109.831,285.697,104.31,291.218,97.499,291.218z"/>
	<path style="fill:#F44A82;" d="M290.986,291.218h-41.669c-6.811,0-12.333-5.522-12.333-12.333v-21.412
		c0-6.811,5.522-12.333,12.333-12.333h41.669c6.811,0,12.333,5.522,12.333,12.333v21.413
		C303.319,285.697,297.798,291.218,290.986,291.218z"/>
	<path style="fill:#F44A82;" d="M194.242,291.218h-41.669c-6.811,0-12.333-5.522-12.333-12.333v-21.412
		c0-6.811,5.522-12.333,12.333-12.333h41.669c6.811,0,12.333,5.522,12.333,12.333v21.413
		C206.575,285.697,201.053,291.218,194.242,291.218z"/>
	<circle style="fill:#F44A82;" cx="173.406" cy="396.436" r="68.969"/>
</g>
<path style="fill:#E2276A;" d="M227.866,342.024c-0.007-0.007-0.013-0.015-0.02-0.022c-0.006-0.006-0.014-0.013-0.021-0.019
	c-30.018-29.996-78.843-29.989-108.854,0.019c-30.016,30.016-30.016,78.856,0,108.873c15.011,15.011,34.721,22.513,54.437,22.513
	c19.712,0,39.43-7.506,54.436-22.513c0.001,0,0.001,0,0.001,0C257.855,420.865,257.861,372.041,227.866,342.024z M130.313,353.342
	c11.881-11.881,27.488-17.822,43.095-17.822c13.08,0,26.152,4.189,37.04,12.536l-85.42,85.42
	C106.723,409.599,108.473,375.181,130.313,353.342z M216.505,439.533c-21.84,21.84-56.259,23.589-80.135,5.285l85.42-85.421
	C240.094,383.276,238.344,417.694,216.505,439.533z"/>
<g>
	<path style="fill:#DDA645;" d="M242.952,334.958c-7.263,0-10.772-9.351-5.242-14.094c2.707-2.322,6.718-2.574,9.69-0.598
		c2.686,1.787,4.069,5.157,3.397,8.317C250.022,332.235,246.7,334.958,242.952,334.958z"/>
	<path style="fill:#DDA645;" d="M268.615,363.829c-3.428,0-6.534-2.272-7.614-5.512c-1.079-3.236,0.09-6.928,2.833-8.953
		c5.807-4.289,14.12,1.043,12.627,8.087C275.687,361.103,272.364,363.829,268.615,363.829z"/>
	<path style="fill:#DDA645;" d="M273.427,404.461c-7.066,0-10.67-8.943-5.535-13.831c2.476-2.357,6.295-2.873,9.309-1.261
		c3.003,1.606,4.724,5.075,4.12,8.44C280.643,401.588,277.292,404.461,273.427,404.461z"/>
</g>
<path style="fill:#78CAEF;" d="M424.979,182.989h-35.785v107.42c0,8.858,7.18,16.038,16.038,16.038h3.708
	c8.858,0,16.038-7.18,16.038-16.038L424.979,182.989L424.979,182.989z"/>
<path style="fill:#61B4D1;" d="M425.004,191.937h-35.836c-4.941,0-8.947-4.006-8.947-8.947s4.006-8.947,8.947-8.947h35.836
	c4.941,0,8.947,4.006,8.947,8.947C433.951,187.93,429.946,191.937,425.004,191.937z"/>
<path style="fill:#F44A82;" d="M503.604,108.159h-35.858v107.672c0,8.858,7.18,16.038,16.038,16.038h3.781
	c8.858,0,16.038-7.18,16.038-16.038V108.159H503.604z"/>
<path style="fill:#E2276A;" d="M480.894,213.939V108.159h-13.148V213.94c0,9.902,8.027,17.929,17.929,17.929
	c2.324,0,4.537-0.457,6.574-1.261C485.603,227.984,480.894,221.518,480.894,213.939z"/>
<path style="fill:#61B4D1;" d="M402.314,288.555V182.989h-13.121v105.566c0,9.881,8.011,17.892,17.892,17.892
	c2.318,0,4.527-0.456,6.56-1.259C407.015,302.571,402.314,296.118,402.314,288.555z"/>
<path style="fill:#E2276A;" d="M503.036,117.124h-34.723c-4.952,0-8.965-4.014-8.965-8.965c0-4.951,4.013-8.965,8.965-8.965h34.723
	c4.952,0,8.965,4.014,8.965,8.965C512.001,113.109,507.988,117.124,503.036,117.124z"/>
<g>
</g>
<g>
</g>
<g>
</g>
<g>
</g>
<g>
</g>
<g>
</g>
<g>
</g>
<g>
</g>
<g>
</g>
<g>
</g>
<g>
</g>
<g>
</g>
<g>
</g>
<g>
</g>
<g>
</g>
</symbol>
<symbol id="gas-co2" viewBox="0 0 512 512">

<path style="fill:#82D8F9;" d="M284.329,0C135.064,0,31.854,125.874,73.711,247.375c2.785,8.083-1.246,16.982-9.235,20.028
	c-33.378,12.728-56.71,41.791-56.71,75.625c0,45.568,42.308,82.508,94.498,82.508c37.443,0,69.785-19.019,85.077-46.593
	c3.707-6.684,11.544-9.848,18.797-7.437c142.909,47.496,298.097-44.484,298.097-179.503C504.236,85.963,405.78,0,284.329,0z"/>
<path style="fill:#68BFEA;" d="M33.52,351.27c0-33.834,23.331-62.897,56.71-75.625c7.988-3.046,12.019-11.945,9.235-20.028
	c-49.827-144.634,104.033-283.3,273.27-239.456C345.68,5.777,315.779,0,284.329,0C135.064,0,31.854,125.874,73.711,247.375
	c2.785,8.083-1.246,16.982-9.235,20.028c-33.378,12.728-56.71,41.791-56.71,75.625c0,39.79,32.26,72.999,75.189,80.781
	C53.509,409.835,33.52,382.591,33.52,351.27z"/>
<ellipse style="fill:#82D8F9;" cx="168.541" cy="478.77" rx="46.917" ry="33.18"/>
<path style="fill:#68BFEA;" d="M147.381,478.773c0-15.165,14.392-27.943,34.04-31.902c-31.142-6.275-59.794,10.665-59.794,31.902
	c0,20.986,28.421,38.224,59.794,31.903C161.773,506.716,147.381,493.938,147.381,478.773z"/>
<path style="fill:#1C84AD;" d="M320.115,270.947c-40.768,0-73.937-37.094-73.937-82.69s33.168-82.69,73.937-82.69
	c40.767,0,73.934,37.094,73.934,82.69S360.882,270.947,320.115,270.947z M320.115,133.164c-25.552,0-46.34,24.715-46.34,55.093
	s20.787,55.093,46.34,55.093c25.55,0,46.337-24.715,46.337-55.093C366.452,157.879,345.665,133.164,320.115,133.164z"/>
<path style="fill:#137B9B;" d="M274.545,198.195c-5.602-36.39,17.819-82.233,59.477-91.14
	c-46.083-9.854-87.844,29.977-87.844,81.202c0,51.528,42.044,90.996,87.844,81.202C302.734,262.77,278.396,233.966,274.545,198.195z
	"/>
<path style="fill:#1C84AD;" d="M107.949,188.257c0-70.178,73.163-107.736,120.837-63.886c5.609,5.159,5.974,13.889,0.815,19.498
	c-5.159,5.608-13.889,5.973-19.497,0.814c-30.262-27.833-74.558-2.117-74.558,43.574s44.299,71.411,74.557,43.575
	c5.608-5.158,14.339-4.796,19.498,0.814c5.158,5.608,4.794,14.338-0.814,19.497C181.159,295.952,107.949,258.533,107.949,188.257z"/>
<g>
	<path style="fill:#137B9B;" d="M135.344,188.257c0-40.348,25.979-74.017,60.208-81.238c-45.755-9.68-87.603,29.896-87.603,81.238
		c0,51.477,41.968,90.893,87.603,81.238C161.324,262.274,135.344,228.605,135.344,188.257z"/>
	<path style="fill:#137B9B;" d="M434.706,285.042h-10.799c35.218-37.919-11.036-66.092-29.356-41.678
		c-2.561,3.413-1.87,8.256,1.543,10.817c3.413,2.562,8.256,1.87,10.817-1.543c0.829-1.105,3.742-2.933,5.498-2.933
		c3.56,0,7.987,1.339,8.862,7.718c0.688,5.018-4.95,17.285-23.011,28.836c-2.891,1.849-4.216,5.383-3.253,8.678
		c0.963,3.294,3.984,5.557,7.416,5.557h32.284c4.267,0,7.726-3.459,7.726-7.726C442.432,288.5,438.973,285.042,434.706,285.042z"/>
</g>
<g>
</g>
<g>
</g>
<g>
</g>
<g>
</g>
<g>
</g>
<g>
</g>
<g>
</g>
<g>
</g>
<g>
</g>
<g>
</g>
<g>
</g>
<g>
</g>
<g>
</g>
<g>
</g>
<g>
</g>
</symbol>
<symbol id="gas" viewBox="0 0 512 512">

<path id="path2" d="M284.329,0C135.064,0,31.854,125.874,73.711,247.375c2.785,8.083-1.246,16.982-9.235,20.028  c-33.378,12.728-56.71,41.791-56.71,75.625c0,45.568,42.308,82.508,94.498,82.508c37.443,0,69.785-19.019,85.077-46.593  c3.707-6.684,11.544-9.848,18.797-7.437c142.909,47.496,298.097-44.484,298.097-179.503C504.236,85.963,405.78,0,284.329,0z" style="fill:#82D8F9;"/>
<path id="path4" d="M33.52,351.27c0-33.834,23.331-62.897,56.71-75.625c7.988-3.046,12.019-11.945,9.235-20.028  c-49.827-144.634,104.033-283.3,273.27-239.456C345.68,5.777,315.779,0,284.329,0C135.064,0,31.854,125.874,73.711,247.375  c2.785,8.083-1.246,16.982-9.235,20.028c-33.378,12.728-56.71,41.791-56.71,75.625c0,39.79,32.26,72.999,75.189,80.781  C53.509,409.835,33.52,382.591,33.52,351.27z" style="fill:#68BFEA;"/>
<ellipse id="ellipse6" ry="33.18" rx="46.917" cy="478.77" cx="168.541" style="fill:#82D8F9;"/>
<path id="path8" d="M147.381,478.773c0-15.165,14.392-27.943,34.04-31.902c-31.142-6.275-59.794,10.665-59.794,31.902  c0,20.986,28.421,38.224,59.794,31.903C161.773,506.716,147.381,493.938,147.381,478.773z" style="fill:#68BFEA;"/>
</symbol>
<symbol id="heartbeat" viewBox="0 0 520 520">

<g id="XMLID_1574_">
	<path id="XMLID_1575_" style="fill:#EF5350;" d="M190.809,92.288c-30.143,0-58.483,11.739-79.797,33.053   c-21.315,21.315-33.054,49.654-33.054,79.798s11.739,58.483,33.054,79.798l138.382,138.382c2.929,2.929,6.767,4.394,10.606,4.394   L270.008,260L260,115.965C240.293,100.61,216.191,92.288,190.809,92.288z"/>
	<path id="XMLID_1576_" style="fill:#D32F2F;" d="M408.989,125.341c-21.315-21.314-49.654-33.053-79.798-33.053   c-25.383,0-49.484,8.323-69.191,23.678v311.747c3.839,0,7.678-1.465,10.606-4.394l138.383-138.382   C452.99,240.936,452.99,169.341,408.989,125.341z"/>
	<path id="XMLID_1577_" style="fill:#FFF04A;" d="M222.862,192.283c-2.816-4.695-7.97-7.497-13.438-7.271   c-5.471,0.21-10.392,3.384-12.841,8.281L170.729,245H15c-8.284,0-15,6.716-15,15s6.716,15,15,15h165   c5.682,0,10.875-3.21,13.417-8.292l17.78-35.56l45.941,76.569c0.786,1.31,1.757,2.465,2.862,3.454L270.008,285L260,254.179   L222.862,192.283z"/>
	<path id="XMLID_1580_" style="fill:#FFCD00;" d="M505,245H347.5L322,211c-3.119-4.159-8.167-6.404-13.347-5.939   c-5.178,0.467-9.745,3.582-12.069,8.231l-27.78,55.56L260,254.179v56.992c2.717,2.432,6.263,3.829,9.998,3.829   c0.191,0,0.385-0.003,0.577-0.011c5.471-0.21,10.393-3.384,12.841-8.281l29.146-58.292L328,269c2.833,3.777,7.278,6,12,6h165   c8.284,0,15-6.716,15-15S513.284,245,505,245z"/>
</g>















</symbol>
<symbol id="magnet" viewBox="0 0 512 512">

<path style="fill:#78CAEF;" d="M431.1,132.092v203.133c0,96.943-78.067,176.727-175.009,176.775
	c-96.746,0.048-175.19-78.364-175.19-175.1V132.092c0-12.588,10.205-22.793,22.793-22.793h80.62
	c12.588,0,22.793,10.205,22.793,22.793V336.08c0,26.768,21.172,49.19,47.935,49.705c27.392,0.527,49.853-21.6,49.853-48.885V132.092
	c0-12.588,10.205-22.793,22.793-22.793h80.62C420.895,109.299,431.1,119.504,431.1,132.092z"/>
<g>
	<path style="fill:#F44A82;" d="M103.697,109.299h80.617c12.588,0,22.793,10.205,22.793,22.793v75.009H80.904v-75.009
		C80.904,119.504,91.109,109.299,103.697,109.299z"/>
	<path style="fill:#F44A82;" d="M431.1,207.098V336.9c0,96.705-78.395,175.1-175.1,175.1V385.794
		c26.955,0,48.894-21.928,48.894-48.894V207.098L431.1,207.098L431.1,207.098z"/>
</g>
<g>
	<path style="fill:#F9C55F;" d="M144.004,93.175c-4.357,0-7.888-3.532-7.888-7.888v-77.4c0-4.356,3.531-7.888,7.888-7.888
		s7.888,3.532,7.888,7.888v77.4C151.892,89.644,148.36,93.175,144.004,93.175z"/>
	<path style="fill:#F9C55F;" d="M186.589,93.178c-0.892,0-1.796-0.151-2.683-0.472c-4.097-1.482-6.217-6.003-4.735-10.101
		l20.559-56.841c1.481-4.097,6.006-6.216,10.101-4.735c4.097,1.482,6.217,6.004,4.735,10.101l-20.559,56.841
		C192.845,91.181,189.815,93.178,186.589,93.178z"/>
	<path style="fill:#F9C55F;" d="M101.418,93.178c-3.227,0-6.256-1.996-7.418-5.207L73.442,31.13
		c-1.482-4.096,0.637-8.619,4.735-10.101c4.091-1.479,8.618,0.637,10.101,4.735l20.559,56.841c1.482,4.096-0.637,8.619-4.735,10.101
		C103.215,93.026,102.31,93.178,101.418,93.178z"/>
	<path style="fill:#F9C55F;" d="M367.997,93.175c-4.357,0-7.888-3.532-7.888-7.888v-77.4c0-4.356,3.531-7.888,7.888-7.888
		c4.357,0,7.888,3.532,7.888,7.888v77.4C375.885,89.644,372.355,93.175,367.997,93.175z"/>
	<path style="fill:#F9C55F;" d="M410.581,93.178c-0.892,0-1.796-0.151-2.683-0.472c-4.097-1.482-6.217-6.003-4.735-10.101
		l20.559-56.841c1.481-4.097,6.005-6.216,10.101-4.735c4.097,1.482,6.217,6.004,4.735,10.101l-20.559,56.841
		C416.839,91.181,413.809,93.178,410.581,93.178z"/>
	<path style="fill:#F9C55F;" d="M325.413,93.178c-3.227,0-6.256-1.996-7.418-5.207L297.436,31.13
		c-1.482-4.096,0.637-8.619,4.735-10.101c4.091-1.479,8.617,0.637,10.101,4.735l20.559,56.841c1.482,4.096-0.637,8.619-4.735,10.101
		C327.21,93.026,326.304,93.178,325.413,93.178z"/>
</g>
<g>
</g>
<g>
</g>
<g>
</g>
<g>
</g>
<g>
</g>
<g>
</g>
<g>
</g>
<g>
</g>
<g>
</g>
<g>
</g>
<g>
</g>
<g>
</g>
<g>
</g>
<g>
</g>
<g>
</g>
</symbol>
<symbol id="meter" viewBox="0 0 512 512">

<path style="fill:#B1EAD4;" d="M446.285,385.159c0,0.995-0.022,1.985-0.038,2.976H391h-19.083H140.083H121H65.752
	c-0.015-0.991-0.038-1.981-0.038-2.976c0-105.198,85.194-190.477,190.285-190.477S446.285,279.961,446.285,385.159z"/>
<path style="fill:#7CC3AC;" d="M16.581,388.135c-0.019-1.248-0.047-2.493-0.047-3.745c0-132.387,107.213-239.708,239.467-239.708
	S495.467,252.003,495.467,384.39c0,1.252-0.028,2.498-0.047,3.745h-93.542c0.031-1.245,0.047-2.493,0.047-3.745
	c0-80.673-65.333-146.072-145.925-146.072S110.075,303.716,110.075,384.39c0,1.252,0.016,2.501,0.047,3.745H16.581z"/>
<path style="fill:#61AE9F;" d="M495.467,384.39c0,1.252-0.028,2.498-0.047,3.745h-19.669c0.018-1.145,0.043-2.288,0.043-3.438
	c0-121.511-98.405-220.016-219.794-220.016S36.206,263.186,36.206,384.697c0,1.149,0.026,2.292,0.043,3.438H16.581
	c-0.019-1.248-0.047-2.493-0.047-3.745c0-132.387,107.213-239.708,239.467-239.708S495.467,252.003,495.467,384.39z"/>
<path style="fill:#FFB05F;" d="M385.477,118.288c2.348,1.145,3.324,3.978,2.156,6.316l-70.211,140.563
	c-1.137,2.276-3.876,3.217-6.176,2.132c-16.761-7.911-35.487-12.336-55.246-12.336s-38.485,4.425-55.246,12.336
	c-2.299,1.085-5.039,0.144-6.176-2.132l-70.211-140.563c-1.168-2.338-0.192-5.171,2.156-6.316C165.635,99.212,209.566,88.5,256,88.5
	S346.365,99.212,385.477,118.288z"/>
<g>
	<path style="fill:#FF904E;" d="M387.633,124.604l-70.211,140.563c-1.137,2.276-3.876,3.217-6.176,2.132
		c-4.511-2.129-9.17-3.994-13.949-5.596l74.702-149.555c4.55,1.941,9.049,3.979,13.478,6.139
		C387.825,119.433,388.801,122.266,387.633,124.604z"/>
	<path style="fill:#FF904E;" d="M256,144.682c39.1,0,76.008,9.385,108.607,26.02l-41.844,83.771
		c-20.007-10.323-42.705-16.155-66.764-16.155s-46.757,5.832-66.764,16.155l-41.844-83.771
		C179.992,154.066,216.9,144.682,256,144.682z"/>
</g>
<path style="fill:#FF733D;" d="M346.812,162.574c6.056,2.48,12.003,5.172,17.795,8.127L338.8,222.367l-16.036,32.105
	c-5.776-2.98-11.78-5.576-17.972-7.773L346.812,162.574z"/>
<path style="fill:#4A7273;" d="M512,388.55c0,4.143-3.357,7.5-7.5,7.5H7.5c-4.143,0-7.5-3.357-7.5-7.5s3.357-7.5,7.5-7.5h497
	C508.643,381.05,512,384.407,512,388.55z"/>
<path style="fill:#43545C;" d="M358.867,212.458L290.124,396.16c-2.061,5.509-8.408,8.057-13.707,5.504l-43.352-20.891
	c-5.293-2.551-7.257-9.093-4.244-14.137L329.4,198.261c4.356-7.292,13.557-10.054,21.209-6.367l0,0
	C358.265,195.583,361.845,204.499,358.867,212.458z"/>
<path style="fill:#4A7273;" d="M233.065,380.773c-5.293-2.551-7.257-9.093-4.244-14.137L329.4,198.261
	c4.356-7.292,13.557-10.054,21.209-6.367l0,0c0.972,0.469,1.877,1.023,2.713,1.647L261.51,394.48L233.065,380.773z"/>
<path style="fill:#43545C;" d="M290.959,388.506c0,19.327-15.652,34.994-34.959,34.994s-34.959-15.668-34.959-34.994
	c0-19.327,15.652-34.994,34.959-34.994S290.959,369.179,290.959,388.506z"/>
<path style="fill:#61AE9F;" d="M271.626,388.506c0,8.639-6.996,15.642-15.626,15.642s-15.626-7.003-15.626-15.642
	s6.996-15.642,15.626-15.642S271.626,379.867,271.626,388.506z"/>
<g>
</g>
<g>
</g>
<g>
</g>
<g>
</g>
<g>
</g>
<g>
</g>
<g>
</g>
<g>
</g>
<g>
</g>
<g>
</g>
<g>
</g>
<g>
</g>
<g>
</g>
<g>
</g>
<g>
</g>
</symbol>
<symbol id="nuclear" viewBox="0 0 512 512">

<path style="fill:#DFF3F4;" d="M479.387,417.952L266.423,80.878c-4.839-7.66-16.01-7.657-20.845,0L32.612,417.952
	c-5.186,8.211,0.695,18.914,10.424,18.914h425.927C478.677,436.866,484.582,426.175,479.387,417.952z"/>
<path style="fill:#AAE8F2;" d="M60.478,417.952L269.933,86.433c-2.018-1.918-4.307-11.299-13.933-11.299
	c-2.043,0-7.148,0.559-10.422,5.744L32.612,417.952c-5.186,8.211,0.695,18.914,10.424,18.914h27.865
	C61.188,436.866,55.282,426.178,60.478,417.952z"/>
<path style="fill:#485760;" d="M309.753,324.278c-5.595-1.4-9.383-6.477-9.37-12.244c0-0.033,0-0.067,0-0.1
	c0-16.978-9.537-31.722-23.543-39.183c-5.082-2.707-7.48-8.69-5.898-14.226l21.636-75.725c1.998-6.993-2.426-14.231-9.575-15.567
	c-17.529-3.275-35.982-3.367-54.005,0c-7.149,1.336-11.573,8.573-9.575,15.567l21.636,75.725c1.582,5.537-0.816,11.519-5.898,14.226
	c-14.118,7.521-23.595,22.38-23.543,39.283c0.013,5.767-3.776,10.843-9.37,12.244l-75.521,18.906
	c-7.061,1.768-11.097,9.222-8.69,16.091c6.074,17.327,15.319,33.162,27.041,46.811c4.737,5.515,13.209,5.729,18.265,0.504
	l53.466-55.26c4.117-4.255,10.62-4.921,15.635-1.774c14.176,8.896,32.547,9.142,47.115,0c5.015-3.147,11.518-2.481,15.635,1.774
	l53.466,55.26c5.055,5.225,13.528,5.011,18.265-0.504c11.722-13.648,20.967-29.483,27.041-46.811
	c2.408-6.869-1.629-14.323-8.69-16.091L309.753,324.278z"/>
<path style="fill:#FF9203;" d="M468.963,467.49H43.036c-33.87,0-54.401-37.267-36.314-65.896L219.688,64.521
	C227.603,51.99,241.178,44.51,256,44.51c14.823,0,28.397,7.481,36.314,20.011h-0.001l212.964,337.074
	C523.368,430.228,502.827,467.49,468.963,467.49z M246.449,81.428L33.484,418.502c-4.754,7.526,0.638,17.334,9.553,17.334h425.927
	c8.917,0,14.305-9.811,9.553-17.334L265.553,81.428h-0.001C261.126,74.421,250.889,74.398,246.449,81.428z"/>
<path style="fill:#F47A0B;" d="M42.634,445.268c-1.833-3.326-3.186-6.791-4.089-10.32c-5.756-2.454-9.102-10.05-5.061-16.447
	C70.421,359.98,256.827,64.644,256.905,64.521c4.403-6.969,10.559-12.37,17.704-15.796C268.907,45.99,262.578,44.51,256,44.51
	c-14.822,0-28.396,7.481-36.312,20.011L6.723,401.594c-18.09,28.634,2.449,65.896,36.314,65.896h37.218
	C64.366,467.49,50.303,459.183,42.634,445.268z"/>
<circle style="fill:#FF9203;" cx="256" cy="311.99" r="18.2"/>
<path style="fill:#404B51;" d="M271.543,265.992c-1.159-2.604-1.427-5.612-0.601-8.503l21.636-75.726
	c1.998-6.993-2.426-14.231-9.575-15.566c-17.528-3.275-35.981-3.367-54.005,0c-7.149,1.336-11.573,8.573-9.575,15.566l21.636,75.726
	c1.582,5.537-0.816,11.519-5.898,14.226c-14.522,7.736-23.666,22.953-23.543,39.283c0.013,5.767-3.776,10.843-9.37,12.244
	l-75.521,18.906c-7.061,1.768-11.097,9.222-8.69,16.091c6.074,17.327,15.319,33.162,27.041,46.811
	c4.737,5.515,13.209,5.729,18.265,0.504l53.466-55.26c4.117-4.255,10.62-4.921,15.635-1.774c9.784,6.14,21.874,8.387,33.853,5.539
	C225.903,336.846,229.358,278.26,271.543,265.992z"/>
<path style="fill:#F47A0B;" d="M255.49,311.992c0-6.837,3.776-12.787,9.352-15.896c-2.619-1.46-5.631-2.299-8.842-2.299
	c-10.049,0-18.195,8.146-18.195,18.195c0,13.923,15.002,22.605,27.037,15.896C259.266,324.779,255.49,318.83,255.49,311.992z"/>
<g>
</g>
<g>
</g>
<g>
</g>
<g>
</g>
<g>
</g>
<g>
</g>
<g>
</g>
<g>
</g>
<g>
</g>
<g>
</g>
<g>
</g>
<g>
</g>
<g>
</g>
<g>
</g>
<g>
</g>
</symbol>
<symbol id="pedometer" viewBox="0 0 512 512">

<g>
	<path style="fill:#7284C9;" d="M350,460H103c-12.146,0-23.662-2.734-33.983-7.598c0.445,1.154-3.208-7.991,20.056,50.169   C91.351,508.266,96.866,512,103,512h246c6.134,0,11.649-3.734,13.927-9.429l19.849-49.623C372.765,457.465,361.677,460,350,460z"/>
	<path style="fill:#455DB8;" d="M350,460H225.912v52H349c6.134,0,11.649-3.734,13.927-9.429l19.849-49.623   C372.765,457.465,361.677,460,350,460z"/>
	<path style="fill:#7284C9;" d="M103,53h247c11.84,0,23.076,2.605,33.195,7.241c-0.436-1.3,1.975,4.796-20.268-50.812   C360.649,3.734,355.134,0,349,0H103c-6.134,0-11.649,3.734-13.927,9.429C67.256,63.971,69.008,59.486,68.629,60.773   C79.048,55.795,90.703,53,103,53z"/>
	<path style="fill:#455DB8;" d="M383.195,60.241c-0.436-1.3,1.975,4.796-20.268-50.812C360.649,3.734,355.134,0,349,0H225.912v53   H350C361.84,53,373.076,55.605,383.195,60.241z"/>
	<path style="fill:#455DB8;" d="M479,202h-49v108h49c8.284,0,15-6.716,15-15v-78C494,208.716,487.284,202,479,202z"/>
	<path style="fill:#7284C9;" d="M350,465H103c-46.869,0-85-38.131-85-85V133c0-46.869,38.131-85,85-85h247c46.869,0,85,38.131,85,85   v247C435,426.869,396.869,465,350,465z"/>
	<path style="fill:#455DB8;" d="M350,48H225.912v417H350c46.869,0,85-38.131,85-85V133C435,86.131,396.869,48,350,48z"/>
	<path style="fill:#CCE6F5;" d="M103,435c-30.327,0-55-24.673-55-55V133c0-30.327,24.673-55,55-55h247c30.327,0,55,24.673,55,55v247   c0,30.327-24.673,55-55,55H103z"/>
	<path style="fill:#9ED6F2;" d="M350,78H225.912v357H350c30.327,0,55-24.673,55-55V133C405,102.673,380.327,78,350,78z"/>
	<path style="fill:#FEC356;" d="M149.995,350.541c-25.904-45.272-27.219-101.708-27.219-112.562   c-0.002-35.702,21.035-64.748,47.057-64.749c27.373-0.002,50.403,21.714,47.064,64.744c-2.299,29.626-16.392,43.27-6.879,97.743   C215.314,366.043,170.662,386.661,149.995,350.541z"/>
	<path style="fill:#FEB020;" d="M283.164,143.23c-27.371,0-50.4,21.714-47.061,64.744c2.298,29.617,16.387,43.295,6.879,97.743   c-5.314,30.432,39.393,50.874,60.022,14.824c18.724-32.724,27.218-77.385,27.219-112.562   C330.226,172.043,309.025,143.231,283.164,143.23z"/>
</g>















</symbol>
<symbol id="pin" viewBox="0 0 512 512">

<path style="fill:#FE5E47;" d="M247.585,507.635L100.565,298.81c-53.102-75.426-44.206-178.053,21.086-243.246l0,0
	c74.198-74.086,194.498-74.086,268.696,0l0,0c65.292,65.194,74.189,167.82,21.086,243.246l-147.02,208.825
	C260.318,513.455,251.682,513.455,247.585,507.635z"/>
<path style="fill:#F53737;" d="M411.435,298.812l-147.02,208.824c-4.096,5.819-12.733,5.819-16.83,0L243,501.122L385.435,298.81
	c53.103-75.426,44.206-178.053-21.086-243.247l0,0C330.557,21.825,287.205,3.458,243,0.449
	c52.861-3.598,106.941,14.77,147.348,55.116l0,0C455.641,120.759,464.537,223.385,411.435,298.812z"/>
<path style="fill:#DB3131;" d="M384,180c0,70.692-57.308,128-128,128s-128-57.308-128-128S185.308,52,256,52S384,109.308,384,180z"/>
<path style="fill:#FFECA1;" d="M354,180c0,54.124-43.876,98-98,98s-98-43.876-98-98s43.876-98,98-98S354,125.876,354,180z"/>
<path style="fill:#FF904E;" d="M261.171,40.094c73.208,2.658,132.077,61.527,134.735,134.735c0.103,2.826-2.178,5.171-5.006,5.171
	H261c-2.761,0-5-2.239-5-5V45.099C256,42.272,258.345,39.991,261.171,40.094z"/>
<path style="fill:#FFB05F;" d="M354,180h-93c-2.761,0-5-2.239-5-5V82C310.124,82,354,125.876,354,180z"/>
<g>
</g>
<g>
</g>
<g>
</g>
<g>
</g>
<g>
</g>
<g>
</g>
<g>
</g>
<g>
</g>
<g>
</g>
<g>
</g>
<g>
</g>
<g>
</g>
<g>
</g>
<g>
</g>
<g>
</g>
</symbol>
<symbol id="seismic" viewBox="0 -16 512 512">
<path d="m512 435c0 24.398438-19.949219 45-45 45h-31c-8.402344 0-15-6.601562-15-15v-105h46c24.902344 0 45 50.097656 45 75zm0 0" fill="#9abadb"/><path d="m512 210-34.199219 15 34.199219 15v195c0-24.902344-20.097656-45-45-45h-392v-330h361c41.398438 0 76 33.601562 76 75zm0 0" fill="#e0f4ff"/><path d="m512 240v195c0-24.902344-20.097656-45-45-45h-392v-165h402.800781zm0 0" fill="#bbdcff"/><path d="m512 210v30h-65.199219l-26.699219 79.800781c-1.800781 6-7.5 10.199219-14.101562 10.199219-6.597656 0-12.296875-4.199219-14.097656-10.199219l-31.804688-94.800781-14.097656-42.601562-14.097656 42.601562-31.804688 94.800781c-1.796875 6-7.5 9.898438-13.796875 10.199219-6.300781.300781-12-3.601562-14.101562-9.300781l-38.398438-95.699219-9.300781-23.402344-15 30c-2.699219 5.101563-7.800781 8.402344-13.5 8.402344h-31c-8.402344 0-15-6.601562-15-15 0-8.402344 6.597656-15 15-15h21.699219l25.800781-51.601562c2.699219-5.398438 7.5-9 14.101562-8.398438 6 .300781 11.097657 3.898438 13.199219 9.300781l26.398438 65.699219 18.601562 46.5 15.597657-46.5 31.503906-94.800781c3.898437-12.300781 24.296875-12.300781 28.195312 0l31.804688 94.800781 14.097656 42.597656 14.398438-42.597656 1.5-4.800781c1.800781-6 7.503906-10.199219 14.101562-10.199219zm0 0" fill="#f03800"/><g fill="#cd0000"><path d="m150 225h62.800781l-3.300781 6.597656c-2.699219 5.101563-7.800781 8.402344-13.5 8.402344h-31c-8.402344 0-15-6.601562-15-15zm0 0"/><path d="m331.902344 225-31.804688 94.800781c-1.796875 6-7.5 9.898438-13.796875 10.199219-6.300781.300781-12-3.601562-14.101562-9.300781l-38.398438-95.699219h32.398438l18.601562 46.5 15.597657-46.5zm0 0"/><path d="m512 225v15h-65.199219l-26.699219 79.800781c-1.800781 6-7.5 10.199219-14.101562 10.199219-6.597656 0-12.296875-4.199219-14.097656-10.199219l-31.804688-94.800781h31.804688l14.097656 42.597656 14.398438-42.597656zm0 0"/></g><path d="m90 15v450c0 8.398438-6.597656 15-15 15s-15-6.601562-15-15v-450c0-8.402344 6.597656-15 15-15s15 6.597656 15 15zm0 0" fill="#895d3c"/><path d="m90 225v240c0 8.398438-6.597656 15-15 15s-15-6.601562-15-15v-240zm0 0" fill="#714c2f"/><path d="m174.902344 213.898438-49.800782-44.699219c-13.800781-12.300781-31.5-19.199219-50.101562-19.199219-41.398438 0-75 33.601562-75 75s33.601562 75 75 75c18.601562 0 36.300781-6.902344 50.097656-19.199219l49.800782-44.699219c3.300781-2.703124 5.101562-6.902343 5.101562-11.101562s-1.800781-8.402344-5.097656-11.101562zm-99.902344 26.101562c-8.402344 0-15-6.601562-15-15 0-8.402344 6.597656-15 15-15s15 6.597656 15 15c0 8.398438-6.597656 15-15 15zm0 0" fill="#ff641a"/><path d="m180 225c0 4.199219-1.800781 8.398438-5.097656 11.101562l-49.800782 44.699219c-13.800781 12.296875-31.5 19.199219-50.101562 19.199219-41.398438 0-75-33.601562-75-75h60c0 8.398438 6.597656 15 15 15s15-6.601562 15-15zm0 0" fill="#f03800"/></symbol>
<symbol id="sun" viewBox="0 0 512 512">
<path d="m256 512c-6.074219 0-11.554688-3.664062-13.867188-9.285156l-14.4375-35.023438c-4.078124-9.882812-12.679687-17.441406-23.011718-20.210937-10.320313-2.765625-21.539063-.523438-30.011719 6l-30.019531 23.117187c-4.8125 3.707032-11.390625 4.144532-16.652344 1.105469s-8.171875-8.949219-7.367188-14.972656l5.011719-37.558594c1.414063-10.597656-2.257812-21.4375-9.816406-28.992187-7.5625-7.570313-18.40625-11.238282-29.003906-9.824219l-37.554688 5.011719c-6.027343.804687-11.9375-2.105469-14.972656-7.367188-3.039063-5.261719-2.605469-11.839844 1.105469-16.652344l23.117187-30.023437c6.523438-8.46875 8.765625-19.6875 6-30.015625-2.773437-10.324219-10.328125-18.929688-20.214843-23.007813l-35.019532-14.433593c-5.621094-2.3125-9.285156-7.789063-9.285156-13.867188s3.664062-11.554688 9.285156-13.867188l35.023438-14.4375c9.882812-4.074218 17.441406-12.679687 20.214844-23.011718 2.761718-10.320313.519531-21.539063-6.003907-30.011719l-23.117187-30.019531c-3.707032-4.8125-4.144532-11.390625-1.105469-16.652344s8.945313-8.175781 14.972656-7.367188l37.558594 5.011719c10.597656 1.414063 21.4375-2.253906 28.992187-9.816406 7.570313-7.5625 11.238282-18.402344 9.824219-29.003906l-5.011719-37.554688c-.804687-6.023437 2.105469-11.933593 7.367188-14.972656s11.839844-2.601563 16.652344 1.105469l30.019531 23.121094c8.472656 6.519531 19.691406 8.761718 30.019531 5.996093 10.324219-2.769531 18.929688-10.328125 23.007813-20.214843l14.433593-35.019532c2.3125-5.621094 7.792969-9.285156 13.867188-9.285156s11.554688 3.664062 13.867188 9.285156l14.4375 35.023438c4.078124 9.882812 12.679687 17.441406 23.011718 20.210937 10.320313 2.765625 21.539063.523438 30.011719-6l30.019531-23.117187c4.8125-3.707032 11.390625-4.144532 16.652344-1.105469 5.265625 3.039063 8.171875 8.949219 7.367188 14.972656l-5.011719 37.558594c-1.414063 10.597656 2.257812 21.4375 9.816406 28.992187 7.5625 7.570313 18.402344 11.234376 29.003906 9.824219l37.554688-5.011719c6.027343-.804687 11.9375 2.105469 14.972656 7.367188 3.039063 5.261719 2.605469 11.839844-1.105469 16.652344l-23.117187 30.023437c-6.523438 8.46875-8.765625 19.6875-6 30.015625 2.773437 10.324219 10.328125 18.929688 20.214843 23.007813l35.023438 14.433593c5.617188 2.3125 9.28125 7.789063 9.28125 13.867188s-3.664062 11.554688-9.285156 13.867188l-35.023438 14.4375c-9.882812 4.074218-17.441406 12.679687-20.214844 23.011718-2.761718 10.320313-.519531 21.539063 6.003907 30.011719l23.117187 30.019531c3.707032 4.8125 4.144532 11.390625 1.105469 16.652344s-8.949219 8.171875-14.972656 7.367188l-37.558594-5.011719c-10.59375-1.410157-21.4375 2.253906-28.992187 9.816406-7.570313 7.5625-11.238282 18.402344-9.824219 29.003906l5.011719 37.554688c.804687 6.023437-2.105469 11.933593-7.367188 14.972656s-11.835938 2.601563-16.652344-1.105469l-30.019531-23.121094c-8.472656-6.519531-19.691406-8.761718-30.019531-5.996093-10.324219 2.769531-18.929688 10.328125-23.007813 20.214843l-14.433593 35.019532c-2.3125 5.621094-7.792969 9.285156-13.867188 9.285156zm0 0" fill="#ffee4a"/><path d="m269.867188 502.714844 14.433593-35.019532c4.082031-9.886718 12.683594-17.445312 23.011719-20.214843 10.324219-2.765625 21.546875-.523438 30.015625 6l30.019531 23.117187c4.816406 3.707032 11.390625 4.144532 16.652344 1.105469 5.265625-3.039063 8.171875-8.949219 7.367188-14.972656l-5.011719-37.554688c-1.414063-10.601562 2.257812-21.441406 9.824219-29.003906 7.554687-7.558594 18.398437-11.226563 28.996093-9.816406l37.554688 5.011719c6.023437.804687 11.9375-2.101563 14.972656-7.367188 3.039063-5.261719 2.605469-11.835938-1.105469-16.652344l-23.117187-30.019531c-6.523438-8.46875-8.765625-19.691406-6-30.011719 2.769531-10.332031 10.328125-18.933594 20.210937-23.011718l35.027344-14.4375c5.617188-2.3125 9.28125-7.789063 9.28125-13.867188s-3.664062-11.554688-9.285156-13.867188l-35.019532-14.4375c-9.886718-4.078124-17.445312-12.679687-20.214843-23.003906-2.765625-10.328125-.523438-21.546875 5.996093-30.019531l23.121094-30.019531c3.707032-4.8125 4.144532-11.390625 1.105469-16.652344s-8.945313-8.171875-14.972656-7.367188l-37.554688 5.011719c-10.601562 1.410157-21.441406-2.253906-29.003906-9.824219-7.5625-7.554687-11.230469-18.394531-9.816406-28.996093l5.011719-37.554688c.804687-6.023437-2.105469-11.933593-7.367188-14.972656-5.265625-3.039063-11.839844-2.605469-16.652344 1.105469l-30.019531 23.117187c-8.472656 6.523438-19.691406 8.765625-30.011719 6-10.332031-2.773437-18.9375-10.328125-23.011718-20.210937l-14.4375-35.023438c-2.3125-5.621094-7.792969-9.285156-13.867188-9.285156v512c6.074219 0 11.554688-3.664062 13.867188-9.285156zm0 0" fill="#ffcd37"/><path d="m256 383.46875c-70.285156 0-127.46875-57.183594-127.46875-127.46875s57.183594-127.46875 127.46875-127.46875 127.46875 57.183594 127.46875 127.46875-57.183594 127.46875-127.46875 127.46875zm0 0" fill="#ffcd37"/><path d="m383.46875 256c0-70.285156-57.183594-127.46875-127.46875-127.46875v254.9375c70.285156 0 127.46875-57.183594 127.46875-127.46875zm0 0" fill="#ffa000"/></symbol>
<symbol id="thermometer" viewBox="-65 0 512 512">
<path d="m187.949219 296.042969v-227.078125c0-38.089844-30.875-68.964844-68.964844-68.964844-38.085937 0-68.960937 30.875-68.960937 68.964844v227.078125c-30.277344 21.570312-50.023438 56.964843-50.023438 96.972656 0 65.710937 53.273438 118.984375 118.984375 118.984375 65.714844 0 118.988281-53.273438 118.988281-118.984375 0-40.007813-19.746094-75.402344-50.023437-96.972656zm0 0" fill="#d3ddea"/><path d="m196.171875 393.015625c0 42.558594-34.617187 77.1875-77.1875 77.1875-42.558594 0-77.1875-34.628906-77.1875-77.1875 0-24.921875 12.144531-48.441406 32.476563-62.933594l17.542968-12.496093v-248.625c0-14.984376 12.183594-27.167969 27.167969-27.167969s27.167969 12.183593 27.167969 27.167969v248.625l17.542968 12.496093c20.34375 14.492188 32.476563 38.011719 32.476563 62.933594zm0 0" fill="#84abc1"/><path d="m118.984375 470.203125c-42.558594 0-77.1875-34.628906-77.1875-77.1875 0-24.921875 12.140625-48.441406 32.472656-62.933594l17.546875-12.496093v-248.625c0-14.984376 12.183594-27.167969 27.167969-27.167969-8.550781 0-10.285156 12.183593-10.285156 27.167969v248.625s-33.769531 26.464843-33.769531 75.429687c0 42.558594 19.769531 77.1875 44.054687 77.1875zm0 0" fill="#4d87a1"/><path d="m146.152344 68.960938v154.304687h-54.335938v-154.304687c0-14.984376 12.183594-27.167969 27.167969-27.167969s27.167969 12.183593 27.167969 27.167969zm0 0" fill="#fff"/><g fill="#84abc1"><path d="m91.816406 271.652344h54.335938v15.671875h-54.335938zm0 0"/><path d="m91.816406 211.773438h54.335938v15.671874h-54.335938zm0 0"/><path d="m91.816406 151.898438h54.335938v15.671874h-54.335938zm0 0"/><path d="m91.816406 92.019531h54.335938v15.675781h-54.335938zm0 0"/></g><path d="m377.640625 208.441406-16.066406-9.277344 16.066406-9.277343c3.75-2.164063 5.035156-6.957031 2.871094-10.703125-2.164063-3.75-6.957031-5.035156-10.707031-2.871094l-16.070313 9.277344v-18.554688c0-4.328125-3.507813-7.835937-7.835937-7.835937-4.328126 0-7.835938 3.507812-7.835938 7.835937v18.554688l-16.070312-9.277344c-3.75-2.164062-8.542969-.878906-10.703126 2.871094-2.164062 3.746094-.882812 8.539062 2.867188 10.703125l16.070312 9.277343-16.070312 9.277344c-3.75 2.164063-5.03125 6.957032-2.867188 10.707032 1.449219 2.511718 4.085938 3.917968 6.792969 3.917968 1.328125 0 2.675781-.339844 3.910157-1.050781l16.070312-9.277344v18.554688c0 4.328125 3.507812 7.835937 7.835938 7.835937 4.328124 0 7.835937-3.507812 7.835937-7.835937v-18.554688l16.070313 9.277344c1.234374.710937 2.582031 1.050781 3.910156 1.050781 2.710937 0 5.34375-1.40625 6.796875-3.917968 2.164062-3.75.878906-8.542969-2.871094-10.707032zm0 0" fill="#d3ddea"/><path d="m339.132812 128.5625c1.234376.714844 2.582032 1.054688 3.914063 1.054688 2.707031 0 5.339844-1.410157 6.792969-3.921876 2.164062-3.746093.878906-8.539062-2.867188-10.703124l-42.03125-24.265626 42.03125-24.265624c3.746094-2.164063 5.03125-6.957032 2.867188-10.703126-2.164063-3.75-6.957032-5.035156-10.707032-2.871093l-42.027343 24.265625v-48.527344c0-4.328125-3.507813-7.835938-7.835938-7.835938s-7.835937 3.507813-7.835937 7.835938v48.527344l-42.027344-24.265625c-3.75-2.164063-8.542969-.878907-10.707031 2.871093-2.164063 3.746094-.878907 8.539063 2.867187 10.703126l42.03125 24.265624-42.03125 24.265626c-3.746094 2.164062-5.03125 6.957031-2.867187 10.703124 1.453125 2.515626 4.085937 3.921876 6.792969 3.921876 1.332031 0 2.679687-.339844 3.914062-1.054688l42.027344-24.261719v48.527344c0 4.328125 3.507812 7.835937 7.835937 7.835937s7.835938-3.507812 7.835938-7.835937v-48.527344zm0 0" fill="#d3ddea"/></symbol>
<symbol id="water" viewBox="-41 0 512 512">
<path d="m103.207031.00390625c-61.679687 35.69531275-103.207031 102.33984375-103.207031 178.72656275 0 2.730469.0546875 5.445312.15625 8.148437 5.039062 129.746094 201.058594 129.746094 206.097656 0 .105469-2.703125.160156-5.417968.160156-8.148437-.003906-76.386719-41.527343-143.03125-103.207031-178.72656275zm0 0" fill="#84abc1"/><path d="m103.207031 284.191406c-50.246093 0-100.488281-32.46875-103.007812-97.3125-.097657-2.71875-.199219-5.4375-.199219-8.15625 0-76.371094 41.535156-143.027344 103.207031-178.722656-12.4375 35.695312-49.058593 102.351562-49.058593 178.722656 0 2.71875 0 5.4375.050781 8.15625.503906 64.84375 38.886719 97.3125 49.007812 97.3125zm0 0" fill="#4d87a1"/><path d="m343.625 146.527344c-51.140625 29.59375-85.570312 84.851562-85.570312 148.183594 0 2.261718.046874 4.511718.132812 6.753906 4.179688 107.574218 166.691406 107.574218 170.871094 0 .085937-2.238282.132812-4.492188.132812-6.753906 0-63.332032-34.429687-118.589844-85.566406-148.183594zm0 0" fill="#84abc1"/><path d="m343.625 382.148438c-41.65625 0-83.3125-26.921876-85.402344-80.683594-.082031-2.253906-.167968-4.507813-.167968-6.761719 0-63.320313 34.4375-118.582031 85.570312-148.175781-10.3125 29.59375-40.671875 84.855468-40.671875 148.175781 0 2.253906 0 4.507813.039063 6.761719.417968 53.761718 32.242187 80.683594 40.632812 80.683594zm0 0" fill="#4d87a1"/><path d="m161.410156 321.894531c-41.257812 23.878907-69.035156 68.460938-69.035156 119.558594 0 1.824219.035156 3.640625.105469 5.449219 3.371093 86.792968 134.492187 86.792968 137.863281 0 .070312-1.804688.105469-3.625.105469-5.449219 0-51.097656-27.777344-95.679687-69.039063-119.558594zm0 0" fill="#84abc1"/><path d="m161.410156 512c-33.609375 0-67.21875-21.722656-68.902344-65.097656-.066406-1.820313-.132812-3.636719-.132812-5.457032 0-51.085937 27.78125-95.675781 69.035156-119.554687-8.316406 23.878906-32.816406 68.46875-32.816406 119.554687 0 1.820313 0 3.636719.035156 5.457032.335938 43.375 26.011719 65.097656 32.78125 65.097656zm0 0" fill="#4d87a1"/></symbol>
<symbol id="waziup" viewBox="0 0 801.94362 201.82989">
<g transform="matrix(1.25,0,0,-1.25,-94.044067,459.56488)" id="g10"><g transform="translate(-5.0447456,25.223728)" id="g12"><g transform="matrix(1.4757877,0,0,1.6621193,-38.196237,-233.01697)" clip-path="url(#clipPath16)" id="g14"><g transform="translate(354.1562,300.5928)" id="g20"><path id="path22" style="fill:#d6471a;fill-opacity:1;fill-rule:nonzero;stroke:none" d="m 0,0 c 2.703,-1.123 4.773,-2.579 5.791,-4.31 l 0,5.628 c 0,4.747 -9.303,8.594 -20.777,8.594 -11.475,0 -20.777,-3.847 -20.777,-8.594 l 0,-5.622 c 1.021,1.727 3.088,3.181 5.788,4.304 3.884,1.603 9.16,2.571 14.989,2.575 C -9.162,2.571 -3.882,1.603 0,0"/></g><g transform="translate(504.9473,266.0645)" id="g24"><path id="path26" style="fill:#f35e19;fill-opacity:1;fill-rule:nonzero;stroke:none" d="m 0,0 c 6.266,8.055 10.053,18.178 10.053,29.125 0,11.431 -4.063,21.896 -10.81,30.158 -1.309,1.584 -3.72,1.791 -5.233,0.346 L -6.817,58.871 C -8.194,57.563 -8.331,55.359 -7.161,53.914 -1.653,47.166 1.652,38.559 1.652,29.195 1.652,20.174 -1.446,11.842 -6.541,5.232 -7.712,3.717 -7.505,1.584 -6.06,0.344 l 0.827,-0.758 C -3.718,-1.859 -1.309,-1.654 0,0"/></g><g transform="translate(495.8584,275.0156)" id="g28"><path id="path30" style="fill:#f35e19;fill-opacity:1;fill-rule:nonzero;stroke:none" d="m 0,0 c 4.062,5.715 6.472,12.668 6.472,20.174 0,7.849 -2.618,15.148 -7.023,21.002 -1.308,1.72 -3.787,1.996 -5.371,0.482 l -0.826,-0.759 c -1.377,-1.307 -1.516,-3.374 -0.413,-4.888 3.305,-4.407 5.302,-9.915 5.302,-15.837 0,-5.715 -1.79,-11.016 -4.889,-15.285 -1.033,-1.516 -0.757,-3.58 0.62,-4.752 l 0.826,-0.688 C -3.787,-2.066 -1.309,-1.721 0,0"/></g><g transform="translate(485.8057,284.3105)" id="g32"><path id="path34" style="fill:#f35e19;fill-opacity:1;fill-rule:nonzero;stroke:none" d="m 0,0 c 1.928,3.168 3.029,6.887 3.029,10.879 0,4.201 -1.239,8.195 -3.374,11.5 -1.239,1.928 -3.855,2.271 -5.509,0.756 L -6.68,22.379 c -1.238,-1.172 -1.584,-3.098 -0.62,-4.545 1.24,-1.996 1.997,-4.406 1.997,-6.955 0,-2.34 -0.62,-4.543 -1.72,-6.473 -0.895,-1.513 -0.621,-3.373 0.688,-4.545 l 0.826,-0.756 C -3.856,-2.34 -1.171,-1.928 0,0"/></g><g transform="translate(470.3213,295.3965)" id="g36"><path id="path38" style="fill:#f35e19;fill-opacity:1;fill-rule:nonzero;stroke:none" d="m 0,0 c 0,-2.32 -1.88,-4.199 -4.2,-4.199 -2.321,0 -4.199,1.879 -4.199,4.199 0,2.319 1.878,4.199 4.199,4.199 C -1.88,4.199 0,2.319 0,0"/></g><g transform="translate(400.4326,327.5273)" id="g40"><path id="path42" style="fill:#abadac;fill-opacity:1;fill-rule:nonzero;stroke:none" d="m 0,0 c 1.693,0 3.127,-0.604 4.299,-1.808 1.173,-1.206 1.759,-2.655 1.759,-4.348 l 0,-25.404 c 0,-4.298 -0.83,-8.354 -2.492,-12.165 -1.661,-3.81 -3.908,-7.132 -6.742,-9.965 -2.833,-2.834 -6.155,-5.081 -9.966,-6.743 -3.81,-1.661 -7.865,-2.491 -12.165,-2.491 -4.364,0 -8.451,0.83 -12.261,2.491 -3.811,1.662 -7.133,3.909 -9.967,6.743 -2.833,2.833 -5.08,6.155 -6.741,9.965 -1.662,3.811 -2.493,7.867 -2.493,12.165 l 0,25.404 c 0,1.693 0.602,3.142 1.808,4.348 1.205,1.204 2.653,1.808 4.349,1.808 1.692,0 3.126,-0.602 4.299,-1.805 1.172,-1.203 1.758,-2.648 1.758,-4.339 l 0,-25.355 c 0,-2.665 0.504,-5.152 1.515,-7.461 1.009,-2.308 2.377,-4.339 4.103,-6.094 1.726,-1.756 3.762,-3.137 6.107,-4.145 2.346,-1.008 4.852,-1.511 7.523,-1.511 2.605,0 5.081,0.503 7.426,1.511 2.346,1.008 4.398,2.389 6.156,4.145 1.759,1.755 3.142,3.786 4.153,6.094 1.009,2.309 1.514,4.796 1.514,7.461 l -0.097,0 0,25.355 c 0,1.691 0.601,3.136 1.807,4.339 C -3.144,-0.602 -1.694,0 0,0"/></g><g transform="translate(460.3926,294.6973)" id="g44"><path id="path46" style="fill:#abadac;fill-opacity:1;fill-rule:nonzero;stroke:none" d="m 0,0 c 0.325,4.559 -0.813,8.662 -3.415,12.312 -1.301,1.887 -2.879,3.483 -4.732,4.788 -1.854,1.301 -3.854,2.246 -6,2.833 -4.424,1.236 -8.686,0.943 -12.784,-0.88 0.523,0.259 1.043,0.504 1.566,0.733 0.521,0.228 1.044,0.44 1.566,0.635 -0.652,-0.261 -1.287,-0.523 -1.905,-0.782 -0.62,-0.26 -1.222,-0.554 -1.808,-0.879 -2.411,-1.043 -4.495,-2.606 -6.254,-4.69 -2.28,-2.672 -3.761,-5.733 -4.445,-9.184 -0.684,-3.453 -0.439,-6.84 0.732,-10.162 0.913,-2.476 2.28,-4.69 4.105,-6.644 1.822,-1.954 3.972,-3.485 6.448,-4.593 2.474,-1.042 5.044,-1.563 7.71,-1.563 2.665,0 5.235,0.553 7.706,1.661 1.04,0.52 2.031,1.075 2.975,1.661 0.943,0.587 1.838,1.271 2.683,2.052 1.691,1.693 3.055,3.631 4.096,5.813 C -0.716,-4.707 -0.131,-2.41 0,0 m -1.584,27.261 c 2.217,-1.499 4.19,-3.241 5.92,-5.228 1.728,-1.988 3.181,-4.137 4.354,-6.449 1.174,-2.313 2.072,-4.755 2.692,-7.327 0.62,-2.574 0.896,-5.164 0.832,-7.769 -0.132,-3.321 -0.75,-6.562 -1.857,-9.721 -1.108,-3.161 -2.671,-6.075 -4.69,-8.745 -2.54,-3.322 -5.635,-6.009 -9.282,-8.061 -3.649,-2.052 -7.524,-3.339 -11.627,-3.859 -4.169,-0.521 -8.256,-0.211 -12.262,0.928 -4.007,1.139 -7.671,2.947 -10.992,5.423 l 0,0.098 0,-16.122 c 0,-1.694 -0.593,-3.127 -1.775,-4.299 -1.181,-1.173 -2.625,-1.759 -4.333,-1.759 -1.706,0 -3.152,0.586 -4.334,1.759 -1.181,1.172 -1.772,2.605 -1.772,4.299 l 0,40.744 0,0.586 c 0,0.52 0.016,1.026 0.049,1.514 0.032,0.489 0.081,0.993 0.146,1.515 0.26,2.67 0.897,5.259 1.908,7.768 1.01,2.507 2.283,4.837 3.816,6.985 1.533,2.15 3.328,4.088 5.383,5.814 2.055,1.725 4.289,3.176 6.704,4.348 5.022,2.346 10.308,3.305 15.852,2.883 5.545,-0.425 10.635,-2.199 15.268,-5.325"/></g><g transform="translate(239.9375,295.709)" id="g48"><path id="path50" style="fill:#186dbf;fill-opacity:1;fill-rule:nonzero;stroke:none" d="m 0,0 c 0,3.347 -0.806,6.437 -2.415,9.271 0,0.065 -0.017,0.112 -0.048,0.147 -0.033,0.031 -0.049,0.08 -0.049,0.145 -0.258,0.385 -0.514,0.771 -0.773,1.159 -0.258,0.385 -0.516,0.739 -0.772,1.061 -1.739,2.256 -3.897,4.026 -6.47,5.314 -2.577,1.286 -5.411,1.931 -8.5,1.931 -3.093,0 -5.943,-0.692 -8.551,-2.077 -2.607,-1.387 -4.779,-3.203 -6.519,-5.457 C -35.32,9.883 -36.271,8.113 -36.946,6.182 -37.623,4.25 -37.962,2.188 -37.962,0 l 0,-7.148 c 2.512,1.802 5.28,3.203 8.309,4.203 3.024,0.996 6.214,1.496 9.561,1.496 l 1.065,0 m 0,32.553 c 4.312,0 8.353,-0.823 12.12,-2.464 C -3.14,26.998 0.146,24.775 2.946,21.976 5.747,19.174 7.971,15.873 9.611,12.073 11.253,8.273 12.074,4.25 12.074,0 l 0,-25.115 c 0,-1.676 -0.579,-3.09 -1.739,-4.25 -1.159,-1.158 -2.576,-1.74 -4.25,-1.74 -1.675,0 -3.106,0.582 -4.298,1.74 C 0.596,-28.205 0,-26.791 0,-25.115 l 0,11.592 -19.027,0 0,0.097 c -0.195,-0.064 -0.55,-0.097 -1.065,-0.097 -2.125,0 -4.153,-0.325 -6.085,-0.967 -1.93,-0.645 -3.685,-1.545 -5.262,-2.703 -1.581,-1.161 -2.948,-2.545 -4.108,-4.155 -1.159,-1.611 -2.028,-3.382 -2.606,-5.312 -0.067,-0.067 -0.098,-0.131 -0.098,-0.195 0,-0.063 -0.033,-0.127 -0.097,-0.192 -0.384,-1.224 -1.093,-2.207 -2.125,-2.945 -1.031,-0.74 -2.219,-1.113 -3.574,-1.113 -1.675,0 -3.091,0.582 -4.25,1.74 -1.159,1.16 -1.739,2.574 -1.739,4.25 l 0,0.869 0,24.246 c 0,3.799 0.643,7.373 1.932,10.722 1.546,4.12 3.866,7.791 6.957,11.011 2.896,2.898 6.228,5.183 9.997,6.857 3.765,1.677 7.806,2.514 12.123,2.514"/></g><g transform="translate(317.1992,274.7949)" id="g52"><path id="path54" style="fill:#286bbd;fill-opacity:1;fill-rule:nonzero;stroke:none" d="m 0,0 c 1.16,-1.127 1.74,-2.527 1.74,-4.201 0,-1.676 -0.58,-3.09 -1.74,-4.25 -1.159,-1.16 -2.575,-1.738 -4.249,-1.738 l -50.81,0 c -1.673,0 -3.089,0.578 -4.25,1.738 -1.158,1.16 -1.738,2.574 -1.738,4.25 0,1.222 0.355,2.383 1.064,3.478 l 0.579,0.578 40.182,40.282 -33.324,0 c -1.676,0 -3.076,0.562 -4.202,1.689 -1.127,1.127 -1.69,2.528 -1.69,4.202 0,1.675 0.563,3.091 1.69,4.25 1.126,1.16 2.526,1.74 4.202,1.74 l 47.91,0 c 1.674,0 3.074,-0.58 4.202,-1.74 1.125,-1.159 1.69,-2.575 1.69,-4.25 0,-1.223 -0.354,-2.382 -1.062,-3.477 -0.13,-0.129 -0.275,-0.291 -0.435,-0.483 -0.162,-0.193 -0.338,-0.386 -0.531,-0.58 l -17.676,-17.676 0,0.096 -22.218,-22.217 36.417,0 C -2.575,1.691 -1.159,1.127 0,0"/></g><g transform="translate(329.0674,326.8125)" id="g56"><path id="path58" style="fill:#186dbf;fill-opacity:1;fill-rule:nonzero;stroke:none" d="M 0,0 C 1.674,0 3.106,-0.597 4.299,-1.787 5.49,-2.979 6.086,-4.412 6.086,-6.086 l 0,-49.844 c 0,-1.674 -0.596,-3.107 -1.787,-4.297 C 3.106,-61.42 1.674,-62.014 0,-62.014 c -1.675,0 -3.091,0.594 -4.25,1.787 -1.159,1.19 -1.738,2.623 -1.738,4.297 l 0,49.844 c 0,1.674 0.579,3.107 1.738,4.299 C -3.091,-0.597 -1.675,0 0,0"/></g><g transform="translate(183.9854,324.9766)" id="g60"><path id="path62" style="fill:#186dbf;fill-opacity:1;fill-rule:nonzero;stroke:none" d="M 0,0 C -1.16,1.159 -2.577,1.738 -4.25,1.738 -5.926,1.738 -7.326,1.159 -8.452,0 -9.58,-1.159 -10.143,-2.577 -10.143,-4.25 l 0,-35.836 -7.803,7.822 c -3.149,3.157 -6.969,4.735 -11.466,4.735 -2.185,0 -4.272,-0.403 -6.264,-1.207 -1.992,-0.807 -3.725,-1.981 -5.202,-3.528 l -7.708,-7.726 0,35.74 c 0,1.674 -0.586,3.091 -1.754,4.25 -1.168,1.158 -2.595,1.738 -4.283,1.738 -1.687,0 -3.117,-0.58 -4.285,-1.738 -1.169,-1.159 -1.752,-2.576 -1.752,-4.25 l 0,-50.133 c 0,-1.676 0.58,-3.09 1.739,-4.25 1.158,-1.16 2.574,-1.738 4.25,-1.738 1.223,0 2.382,0.351 3.478,1.062 l 0,-0.095 17.772,17.869 c 1.094,1.094 2.415,1.64 3.961,1.64 1.415,0 2.704,-0.515 3.862,-1.543 l 17.196,-17.291 0.771,-0.675 0.097,0.095 c 1.029,-0.711 2.125,-1.062 3.284,-1.062 1.673,0 3.09,0.578 4.25,1.738 1.159,1.16 1.738,2.574 1.738,4.25 l 0,50.133 C 1.738,-2.577 1.159,-1.159 0,0"/></g><g transform="translate(90.333,325.2861)" id="g64"><path id="path66" style="fill:#f35e19;fill-opacity:1;fill-rule:nonzero;stroke:none" d="m 0,0 c -6.266,-8.056 -10.053,-18.179 -10.053,-29.126 0,-11.43 4.063,-21.896 10.81,-30.158 1.309,-1.584 3.721,-1.791 5.233,-0.346 l 0.827,0.76 c 1.377,1.307 1.514,3.51 0.344,4.955 -5.508,6.748 -8.812,15.355 -8.812,24.721 0,9.019 3.097,17.351 8.192,23.961 1.171,1.515 0.964,3.649 -0.48,4.888 L 5.233,0.413 C 3.718,1.858 1.31,1.653 0,0"/></g><g transform="translate(99.4219,316.335)" id="g68"><path id="path70" style="fill:#f35e19;fill-opacity:1;fill-rule:nonzero;stroke:none" d="m 0,0 c -4.062,-5.715 -6.472,-12.669 -6.472,-20.175 0,-7.849 2.618,-15.148 7.023,-21.002 1.308,-1.72 3.787,-1.996 5.371,-0.48 l 0.826,0.758 c 1.377,1.306 1.517,3.373 0.413,4.888 -3.305,4.407 -5.302,9.914 -5.302,15.836 0,5.715 1.79,11.017 4.889,15.285 1.033,1.516 0.757,3.582 -0.62,4.752 L 5.304,0.551 C 3.787,2.065 1.31,1.722 0,0"/></g><g transform="translate(109.4746,307.0391)" id="g72"><path id="path74" style="fill:#f35e19;fill-opacity:1;fill-rule:nonzero;stroke:none" d="m 0,0 c -1.928,-3.166 -3.028,-6.886 -3.028,-10.879 0,-4.199 1.238,-8.193 3.372,-11.498 1.24,-1.93 3.856,-2.273 5.51,-0.758 l 0.827,0.758 c 1.237,1.17 1.584,3.098 0.618,4.543 -1.238,1.998 -1.997,4.408 -1.997,6.955 0,2.342 0.62,4.545 1.721,6.473 0.895,1.514 0.622,3.373 -0.688,4.545 L 5.508,0.896 C 3.856,2.342 1.171,1.928 0,0"/></g><g transform="translate(346.8457,292.4639)" id="g76"><path id="path78" style="fill:#f35e19;fill-opacity:1;fill-rule:nonzero;stroke:none" d="m 0,0 0,-1.294 0,-1.484 c -0.872,-0.125 -1.684,-0.219 -2.453,-0.293 -0.768,-0.075 -1.494,-0.129 -2.193,-0.167 -0.701,-0.04 -1.373,-0.063 -2.038,-0.076 -0.664,-0.013 -1.318,-0.013 -1.983,0 -0.665,0.013 -1.338,0.036 -2.038,0.076 -0.699,0.038 -1.425,0.092 -2.194,0.167 -0.768,0.074 -1.581,0.168 -2.452,0.293 l 0,1.484 0,1.294 0,1.484 c 0.871,-0.124 1.684,-0.218 2.452,-0.293 0.769,-0.074 1.495,-0.127 2.194,-0.167 0.7,-0.038 1.373,-0.064 2.038,-0.074 0.665,-0.012 1.319,-0.012 1.983,0 0.665,0.01 1.337,0.036 2.038,0.074 0.699,0.04 1.425,0.093 2.193,0.167 C -1.684,1.266 -0.872,1.36 0,1.484 L 0,0 Z M 7.311,5.444 C 3.429,3.842 -1.852,2.873 -7.676,2.869 c -5.829,0.004 -11.104,0.973 -14.988,2.575 -2.7,1.123 -4.768,2.577 -5.788,4.304 l 0,-5.622 c 0,-4.747 9.302,-8.594 20.776,-8.594 11.475,0 20.778,3.847 20.778,8.594 l 0,5.628 C 12.084,8.023 10.014,6.567 7.311,5.444"/></g><g transform="translate(346.8457,292.4639)" id="g80"><path id="path82" style="fill:#ffffff;fill-opacity:1;fill-rule:nonzero;stroke:none" d="m 0,0 0,-1.294 0,-1.484 c -0.872,-0.125 -1.684,-0.219 -2.453,-0.293 -0.768,-0.075 -1.494,-0.129 -2.193,-0.167 -0.701,-0.04 -1.373,-0.063 -2.038,-0.076 -0.664,-0.013 -1.318,-0.013 -1.983,0 -0.665,0.013 -1.338,0.036 -2.038,0.076 -0.699,0.038 -1.425,0.092 -2.194,0.167 -0.768,0.074 -1.581,0.168 -2.452,0.293 l 0,1.484 0,1.294 0,1.484 c 0.871,-0.124 1.684,-0.218 2.452,-0.293 0.769,-0.074 1.495,-0.127 2.194,-0.167 0.7,-0.038 1.373,-0.064 2.038,-0.074 0.665,-0.012 1.319,-0.012 1.983,0 0.665,0.01 1.337,0.036 2.038,0.074 0.699,0.04 1.425,0.093 2.193,0.167 C -1.684,1.266 -0.872,1.36 0,1.484 L 0,0 Z"/></g><g transform="translate(334.8926,340.3047)" id="g84"><path id="path86" style="fill:#f35e19;fill-opacity:1;fill-rule:nonzero;stroke:none" d="m 0,0 c 0,-3.262 -2.645,-5.906 -5.907,-5.906 -3.262,0 -5.906,2.644 -5.906,5.906 0,3.262 2.644,5.907 5.906,5.907 C -2.645,5.907 0,3.262 0,0"/></g></g></g></g></symbol>
<symbol id="wind" viewBox="-39 0 512 512">
<path d="m187.242188 351.304688c-.675782 0-1.351563-.085938-2.015626-.261719l-145.199218-38.597657c-3.4375-.917968-5.832032-4.03125-5.832032-7.589843v-156.859375c0-3.558594 2.394532-6.671875 5.832032-7.585938l145.199218-38.601562c2.355469-.625 4.867188-.121094 6.800782 1.363281 1.933594 1.488281 3.066406 3.789063 3.066406 6.226563v234.054687c0 2.4375-1.132812 4.738281-3.066406 6.226563-1.386719 1.066406-3.074219 1.625-4.785156 1.625zm-137.347657-52.484376 129.496094 34.421876v-213.632813l-129.496094 34.421875zm0 0" fill="#d3ddea"/><path d="m433.894531 133.511719v185.828125l-262.074219 45.734375v-277.292969zm0 0" fill="#ff7694"/><path d="m433.894531 268.382812v50.957032l-262.074219 45.734375v-70.523438zm0 0" fill="#e53737"/><path d="m349.710938 118.828125v215.195313l-93.707032 16.363281v-247.910157zm0 0" fill="#d3ddea"/><path d="m349.710938 276.785156v57.238282l-93.707032 16.363281v-64.242188zm0 0" fill="#84abc1"/><path d="m57.460938 74.378906v437.621094h-38.09375v-438.6875" fill="#84abc1"/><path d="m37.816406 74.378906v437.621094h-18.449218v-438.6875" fill="#4d87a1"/><path d="m78.769531 39.386719c0 21.75-17.632812 39.382812-39.382812 39.382812-21.753907 0-39.386719-17.632812-39.386719-39.382812 0-21.753907 17.632812-39.386719 39.386719-39.386719 21.75 0 39.382812 17.632812 39.382812 39.386719zm0 0" fill="#e53737"/><path d="m78.773438 39.386719c0 16.769531-10.488282 31.089843-25.257813 36.773437-14.773437-5.683594-25.25-20.003906-25.25-36.773437s10.476563-31.101563 25.25-36.785157c14.769531 5.683594 25.257813 20.015626 25.257813 36.785157zm0 0" fill="#ff7694"/></symbol>

</defs>
</svg>
